<?xml version="1.0" standalone="no"?><!DOCTYPE svg PUBLIC "-//W3C//DTD SVG 1.1//EN" "http://www.w3.org/Graphics/SVG/1.1/DTD/svg11.dtd"><svg t="1698302282199" class="icon" viewBox="0 0 1024 1024" version="1.1" xmlns="http://www.w3.org/2000/svg" p-id="15282" xmlns:xlink="http://www.w3.org/1999/xlink" width="200" height="200"><path d="M802.2528 926.1056H218.2144c-67.3792 0-122.2144-54.8352-122.2144-122.2144V219.904c0-67.3792 54.8352-122.2144 122.2144-122.2144h583.9872c67.3792 0 122.2144 54.8352 122.2144 122.2144v583.9872c0 67.3792-54.784 122.2144-122.1632 122.2144zM218.2144 159.1296c-33.4848 0-60.7744 27.2384-60.7744 60.7744v583.9872c0 33.4848 27.2384 60.7744 60.7744 60.7744h583.9872c33.4848 0 60.7744-27.2384 60.7744-60.7744V219.904c0-33.4848-27.2384-60.7744-60.7744-60.7744H218.2144z" fill="#474747" p-id="15283"></path><path d="M744.9088 358.912H280.3712c-16.9472 0-30.72-13.7728-30.72-30.72s13.7728-30.72 30.72-30.72h464.5376c16.9472 0 30.72 13.7728 30.72 30.72s-13.7216 30.72-30.72 30.72z" fill="#474747" p-id="15284"></path><path d="M626.2784 328.192m-76.288 0a76.288 76.288 0 1 0 152.576 0 76.288 76.288 0 1 0-152.576 0Z" fill="#426DFF" p-id="15285"></path><path d="M744.9088 737.1264H280.3712c-16.9472 0-30.72-13.7728-30.72-30.72s13.7728-30.72 30.72-30.72h464.5376c16.9472 0 30.72 13.7728 30.72 30.72s-13.7216 30.72-30.72 30.72z" fill="#474747" p-id="15286"></path><path d="M626.2784 706.4064m-76.288 0a76.288 76.288 0 1 0 152.576 0 76.288 76.288 0 1 0-152.576 0Z" fill="#426DFF" p-id="15287"></path><path d="M744.9088 548.1472H280.3712c-16.9472 0-30.72-13.7728-30.72-30.72s13.7728-30.72 30.72-30.72h464.5376c16.9472 0 30.72 13.7728 30.72 30.72s-13.7216 30.72-30.72 30.72z" fill="#474747" p-id="15288"></path><path d="M399.0528 517.4272m-76.288 0a76.288 76.288 0 1 0 152.576 0 76.288 76.288 0 1 0-152.576 0Z" fill="#426DFF" p-id="15289"></path></svg>